<svg width="72" height="72" viewBox="0 0 72 72" fill="none" xmlns="http://www.w3.org/2000/svg">
<g clip-path="url(#clip0_111_219)">
<path d="M36 0C16.1179 0 0 16.1179 0 36C0 52.8826 11.6237 67.0493 27.3038 70.9402V47.0016H19.8806V36H27.3038V31.2595C27.3038 19.0066 32.8493 13.3272 44.879 13.3272C47.16 13.3272 51.0955 13.775 52.7054 14.2214V24.1934C51.8558 24.1042 50.3798 24.0595 48.5467 24.0595C42.6442 24.0595 40.3632 26.2958 40.3632 32.1091V36H52.1222L50.1019 47.0016H40.3632V71.7365C58.189 69.5837 72.0014 54.4061 72.0014 36C72 16.1179 55.8821 0 36 0Z" fill="#25B366"/>
</g>
<defs>
<clipPath id="clip0_111_219">
<rect width="72" height="72" fill="white"/>
</clipPath>
</defs>
</svg>
