<svg width="72" height="72" viewBox="0 0 72 72" fill="none" xmlns="http://www.w3.org/2000/svg">
<path fill-rule="evenodd" clip-rule="evenodd" d="M36.0298 0C16.1062 0 0 16.225 0 36.2975C0 52.3425 10.3198 65.9243 24.6362 70.7313C26.4261 71.0927 27.0817 69.9503 27.0817 68.9894C27.0817 68.1479 27.0227 65.2635 27.0227 62.2582C17.0001 64.422 14.913 57.9313 14.913 57.9313C13.3023 53.7246 10.9157 52.6434 10.9157 52.6434C7.63533 50.4199 11.1547 50.4199 11.1547 50.4199C14.7935 50.6603 16.7029 54.1457 16.7029 54.1457C19.9235 59.674 25.1133 58.112 27.2012 57.1503C27.4991 54.8065 28.4542 53.184 29.4683 52.2828C21.4745 51.4413 13.0641 48.3165 13.0641 34.3741C13.0641 30.4078 14.4948 27.1628 16.7619 24.6391C16.4042 23.7379 15.1512 20.0113 17.1203 15.0236C17.1203 15.0236 20.1625 14.0619 27.022 18.7494C29.9588 17.9549 32.9874 17.5507 36.0298 17.5473C39.072 17.5473 42.1732 17.9684 45.0369 18.7494C51.8971 14.0619 54.9393 15.0236 54.9393 15.0236C56.9084 20.0113 55.6546 23.7379 55.297 24.6391C57.6238 27.1628 58.9955 30.4078 58.9955 34.3741C58.9955 48.3165 50.5851 51.3808 42.5316 52.2828C43.8443 53.4244 44.9771 55.5875 44.9771 59.0132C44.9771 63.8807 44.9181 67.7872 44.9181 68.9886C44.9181 69.9503 45.5745 71.0927 47.3637 70.7321C61.68 65.9236 71.9998 52.3425 71.9998 36.2975C72.0588 16.225 55.8936 0 36.0298 0Z" fill="#25B366"/>
</svg>
