<svg width="1049" height="1048" viewBox="0 0 1049 1048" fill="none" xmlns="http://www.w3.org/2000/svg">
<rect x="349.499" y="117.707" width="38.9338" height="38.9338" fill="#25B366" fill-opacity="0.5"/>
<rect x="349.499" y="428.272" width="38.9338" height="38.9338" fill="#25B366" fill-opacity="0.5"/>
<rect x="349.499" y="660.064" width="38.9338" height="38.9338" fill="#25B366" fill-opacity="0.5"/>
<rect x="349.499" y="271.631" width="38.9338" height="38.9338" fill="#25B366" fill-opacity="0.5"/>
<rect x="349.499" y="582.196" width="38.9338" height="38.9338" fill="#25B366" fill-opacity="0.5"/>
<rect x="349.499" y="813.988" width="38.9338" height="38.9338" fill="#25B366" fill-opacity="0.5"/>
<rect x="349.499" y="969.724" width="38.9338" height="38.9338" fill="#25B366" fill-opacity="0.5"/>
<rect x="427.366" y="193.764" width="38.9338" height="38.9338" fill="#25B366" fill-opacity="0.5"/>
<rect x="427.366" y="504.329" width="38.9338" height="38.9338" fill="#25B366" fill-opacity="0.5"/>
<rect x="427.366" y="736.121" width="38.9338" height="38.9338" fill="#25B366" fill-opacity="0.5"/>
<rect x="427.366" y="891.856" width="38.9338" height="38.9338" fill="#25B366" fill-opacity="0.5"/>
<rect x="737.932" y="193.764" width="38.9338" height="38.9338" fill="#25B366" fill-opacity="0.5"/>
<rect x="737.932" y="504.329" width="38.9338" height="38.9338" fill="#25B366" fill-opacity="0.5"/>
<rect x="737.932" y="736.121" width="38.9338" height="38.9338" fill="#25B366" fill-opacity="0.5"/>
<rect x="737.932" y="891.856" width="38.9338" height="38.9338" fill="#25B366" fill-opacity="0.5"/>
<rect x="466.3" y="77.8677" width="38.9338" height="38.9338" fill="#25B366" fill-opacity="0.5"/>
<rect x="466.3" y="388.433" width="38.9338" height="38.9338" fill="#25B366" fill-opacity="0.5"/>
<rect x="776.865" y="77.8677" width="38.9338" height="38.9338" fill="#25B366" fill-opacity="0.5"/>
<rect x="776.865" y="388.433" width="38.9338" height="38.9338" fill="#25B366" fill-opacity="0.5"/>
<rect x="544.168" y="154.83" width="38.0284" height="38.9338" fill="#25B366" fill-opacity="0.5"/>
<rect x="544.168" y="465.395" width="38.0284" height="38.9338" fill="#25B366" fill-opacity="0.5"/>
<rect x="544.168" y="697.187" width="38.0284" height="38.9338" fill="#25B366" fill-opacity="0.5"/>
<rect x="854.732" y="154.83" width="38.0284" height="38.9338" fill="#25B366" fill-opacity="0.5"/>
<rect x="854.732" y="465.395" width="38.0284" height="38.9338" fill="#25B366" fill-opacity="0.5"/>
<rect x="854.732" y="697.187" width="38.0284" height="38.9338" fill="#25B366" fill-opacity="0.5"/>
<rect x="505.234" y="270.726" width="38.9338" height="38.9338" fill="#25B366" fill-opacity="0.5"/>
<rect x="505.234" y="581.291" width="38.9338" height="38.9338" fill="#25B366" fill-opacity="0.5"/>
<rect x="505.234" y="813.083" width="38.9338" height="38.9338" fill="#25B366" fill-opacity="0.5"/>
<rect x="505.234" y="968.818" width="38.9338" height="38.9338" fill="#25B366" fill-opacity="0.5"/>
<rect x="815.799" y="270.726" width="38.9338" height="38.9338" fill="#25B366" fill-opacity="0.5"/>
<rect x="815.799" y="581.291" width="38.9338" height="38.9338" fill="#25B366" fill-opacity="0.5"/>
<rect x="815.799" y="813.083" width="38.9338" height="38.9338" fill="#25B366" fill-opacity="0.5"/>
<rect x="815.799" y="968.818" width="38.9338" height="38.9338" fill="#25B366" fill-opacity="0.5"/>
<rect x="621.13" y="232.697" width="38.9338" height="38.9338" fill="#25B366" fill-opacity="0.5"/>
<rect x="621.13" y="543.262" width="38.9338" height="38.9338" fill="#25B366" fill-opacity="0.5"/>
<rect x="621.13" y="775.054" width="38.9338" height="38.9338" fill="#25B366" fill-opacity="0.5"/>
<rect x="621.13" y="930.79" width="38.9338" height="38.9338" fill="#25B366" fill-opacity="0.5"/>
<rect x="931.695" y="232.697" width="38.9338" height="38.9338" fill="#25B366" fill-opacity="0.5"/>
<rect x="931.695" y="543.262" width="38.9338" height="38.9338" fill="#25B366" fill-opacity="0.5"/>
<rect x="931.695" y="775.054" width="38.9338" height="38.9338" fill="#25B366" fill-opacity="0.5"/>
<rect x="931.695" y="930.79" width="38.9338" height="38.9338" fill="#25B366" fill-opacity="0.5"/>
<rect x="621.13" y="77.8677" width="38.9338" height="38.9338" fill="#25B366" fill-opacity="0.5"/>
<rect x="621.13" y="388.433" width="38.9338" height="38.9338" fill="#25B366" fill-opacity="0.5"/>
<rect x="931.695" y="77.8677" width="38.9338" height="38.9338" fill="#25B366" fill-opacity="0.5"/>
<rect x="931.695" y="388.433" width="38.9338" height="38.9338" fill="#25B366" fill-opacity="0.5"/>
<rect x="388.433" y="154.83" width="38.9338" height="38.9338" fill="#25B366" fill-opacity="0.5"/>
<rect x="388.433" y="465.395" width="38.9338" height="38.9338" fill="#25B366" fill-opacity="0.5"/>
<rect x="388.433" y="697.187" width="38.9338" height="38.9338" fill="#25B366" fill-opacity="0.5"/>
<rect x="349.499" y="193.764" width="38.9338" height="38.9338" fill="#25B366" fill-opacity="0.5"/>
<rect x="349.499" y="504.329" width="38.9338" height="38.9338" fill="#25B366" fill-opacity="0.5"/>
<rect x="349.499" y="736.121" width="38.9338" height="38.9338" fill="#25B366" fill-opacity="0.5"/>
<rect x="349.499" y="891.856" width="38.9338" height="38.9338" fill="#25B366" fill-opacity="0.5"/>
<rect x="466.3" y="309.66" width="38.9338" height="38.9338" fill="#25B366" fill-opacity="0.5"/>
<rect x="466.3" y="620.225" width="38.9338" height="38.9338" fill="#25B366" fill-opacity="0.5"/>
<rect x="466.3" y="852.017" width="38.9338" height="38.9338" fill="#25B366" fill-opacity="0.5"/>
<rect x="466.3" y="1007.75" width="38.9338" height="38.9338" fill="#25B366" fill-opacity="0.5"/>
<rect x="776.865" y="309.66" width="38.9338" height="38.9338" fill="#25B366" fill-opacity="0.5"/>
<rect x="776.865" y="620.225" width="38.9338" height="38.9338" fill="#25B366" fill-opacity="0.5"/>
<rect x="776.865" y="852.017" width="38.9338" height="38.9338" fill="#25B366" fill-opacity="0.5"/>
<rect x="776.865" y="1007.75" width="38.9338" height="38.9338" fill="#25B366" fill-opacity="0.5"/>
<rect x="466.3" width="38.9338" height="38.9338" fill="#25B366" fill-opacity="0.5"/>
<rect x="776.865" width="38.9338" height="38.9338" fill="#25B366" fill-opacity="0.5"/>
<rect x="388.433" y="309.66" width="38.9338" height="38.9338" fill="#25B366" fill-opacity="0.5"/>
<rect x="388.433" y="620.225" width="38.9338" height="38.9338" fill="#25B366" fill-opacity="0.5"/>
<rect x="388.433" y="852.017" width="38.9338" height="38.9338" fill="#25B366" fill-opacity="0.5"/>
<rect x="388.433" y="1007.75" width="38.9338" height="38.9338" fill="#25B366" fill-opacity="0.5"/>
<rect x="388.433" width="38.9338" height="38.9338" fill="#25B366" fill-opacity="0.5"/>
<rect x="466.3" y="232.697" width="38.9338" height="38.9338" fill="#25B366" fill-opacity="0.5"/>
<rect x="466.3" y="543.262" width="38.9338" height="38.9338" fill="#25B366" fill-opacity="0.5"/>
<rect x="466.3" y="775.054" width="38.9338" height="38.9338" fill="#25B366" fill-opacity="0.5"/>
<rect x="466.3" y="930.79" width="38.9338" height="38.9338" fill="#25B366" fill-opacity="0.5"/>
<rect x="776.865" y="232.697" width="38.9338" height="38.9338" fill="#25B366" fill-opacity="0.5"/>
<rect x="776.865" y="543.262" width="38.9338" height="38.9338" fill="#25B366" fill-opacity="0.5"/>
<rect x="776.865" y="775.054" width="38.9338" height="38.9338" fill="#25B366" fill-opacity="0.5"/>
<rect x="776.865" y="930.79" width="38.9338" height="38.9338" fill="#25B366" fill-opacity="0.5"/>
<rect x="505.234" y="116.801" width="38.9338" height="38.9338" fill="#25B366" fill-opacity="0.5"/>
<rect x="505.234" y="427.366" width="38.9338" height="38.9338" fill="#25B366" fill-opacity="0.5"/>
<rect x="505.234" y="659.158" width="38.9338" height="38.9338" fill="#25B366" fill-opacity="0.5"/>
<rect x="815.799" y="116.801" width="38.9338" height="38.9338" fill="#25B366" fill-opacity="0.5"/>
<rect x="815.799" y="427.366" width="38.9338" height="38.9338" fill="#25B366" fill-opacity="0.5"/>
<rect x="815.799" y="659.158" width="38.9338" height="38.9338" fill="#25B366" fill-opacity="0.5"/>
<rect x="582.196" y="193.764" width="38.9338" height="38.9338" fill="#25B366" fill-opacity="0.5"/>
<rect x="582.196" y="504.329" width="38.9338" height="38.9338" fill="#25B366" fill-opacity="0.5"/>
<rect x="582.196" y="736.121" width="38.9338" height="38.9338" fill="#25B366" fill-opacity="0.5"/>
<rect x="582.196" y="891.856" width="38.9338" height="38.9338" fill="#25B366" fill-opacity="0.5"/>
<rect x="892.762" y="193.764" width="38.9338" height="38.9338" fill="#25B366" fill-opacity="0.5"/>
<rect x="892.762" y="504.329" width="38.9338" height="38.9338" fill="#25B366" fill-opacity="0.5"/>
<rect x="892.762" y="736.121" width="38.9338" height="38.9338" fill="#25B366" fill-opacity="0.5"/>
<rect x="892.762" y="891.856" width="38.9338" height="38.9338" fill="#25B366" fill-opacity="0.5"/>
<rect x="544.168" y="309.66" width="38.0284" height="38.9338" fill="#25B366" fill-opacity="0.5"/>
<rect x="544.168" y="620.225" width="38.0284" height="38.9338" fill="#25B366" fill-opacity="0.5"/>
<rect x="544.168" y="852.017" width="38.0284" height="38.9338" fill="#25B366" fill-opacity="0.5"/>
<rect x="544.168" y="1007.75" width="38.0284" height="38.9338" fill="#25B366" fill-opacity="0.5"/>
<rect x="854.732" y="309.66" width="38.0284" height="38.9338" fill="#25B366" fill-opacity="0.5"/>
<rect x="854.732" y="620.225" width="38.0284" height="38.9338" fill="#25B366" fill-opacity="0.5"/>
<rect x="854.732" y="852.017" width="38.0284" height="38.9338" fill="#25B366" fill-opacity="0.5"/>
<rect x="854.732" y="1007.75" width="38.0284" height="38.9338" fill="#25B366" fill-opacity="0.5"/>
<rect x="544.168" width="38.0284" height="38.9338" fill="#25B366" fill-opacity="0.5"/>
<rect x="854.732" width="38.0284" height="38.9338" fill="#25B366" fill-opacity="0.5"/>
<rect x="660.063" y="271.631" width="38.9338" height="38.9338" fill="#25B366" fill-opacity="0.5"/>
<rect x="660.063" y="582.196" width="38.9338" height="38.9338" fill="#25B366" fill-opacity="0.5"/>
<rect x="660.063" y="813.988" width="38.9338" height="38.9338" fill="#25B366" fill-opacity="0.5"/>
<rect x="660.063" y="969.724" width="38.9338" height="38.9338" fill="#25B366" fill-opacity="0.5"/>
<rect x="970.629" y="271.631" width="38.9338" height="38.9338" fill="#25B366" fill-opacity="0.5"/>
<rect x="970.629" y="582.196" width="38.9338" height="38.9338" fill="#25B366" fill-opacity="0.5"/>
<rect x="970.629" y="813.988" width="38.9338" height="38.9338" fill="#25B366" fill-opacity="0.5"/>
<rect x="970.629" y="969.724" width="38.9338" height="38.9338" fill="#25B366" fill-opacity="0.5"/>
<rect x="660.063" y="116.801" width="38.9338" height="38.9338" fill="#25B366" fill-opacity="0.5"/>
<rect x="660.063" y="427.366" width="38.9338" height="38.9338" fill="#25B366" fill-opacity="0.5"/>
<rect x="660.063" y="659.158" width="38.9338" height="38.9338" fill="#25B366" fill-opacity="0.5"/>
<rect x="970.629" y="116.801" width="38.9338" height="38.9338" fill="#25B366" fill-opacity="0.5"/>
<rect x="970.629" y="427.366" width="38.9338" height="38.9338" fill="#25B366" fill-opacity="0.5"/>
<rect x="970.629" y="659.158" width="38.9338" height="38.9338" fill="#25B366" fill-opacity="0.5"/>
<rect x="698.998" y="154.83" width="38.9338" height="38.9338" fill="#25B366" fill-opacity="0.5"/>
<rect x="698.998" y="465.395" width="38.9338" height="38.9338" fill="#25B366" fill-opacity="0.5"/>
<rect x="698.998" y="697.187" width="38.9338" height="38.9338" fill="#25B366" fill-opacity="0.5"/>
<rect x="1009.56" y="154.83" width="38.9338" height="38.9338" fill="#25B366" fill-opacity="0.5"/>
<rect x="1009.56" y="465.395" width="38.9338" height="38.9338" fill="#25B366" fill-opacity="0.5"/>
<rect x="1009.56" y="697.187" width="38.9338" height="38.9338" fill="#25B366" fill-opacity="0.5"/>
<rect x="698.998" y="310.565" width="38.9338" height="38.9338" fill="#25B366" fill-opacity="0.5"/>
<rect x="698.998" y="621.13" width="38.9338" height="38.9338" fill="#25B366" fill-opacity="0.5"/>
<rect x="698.998" y="852.922" width="38.9338" height="38.9338" fill="#25B366" fill-opacity="0.5"/>
<rect x="698.998" y="1008.66" width="38.9338" height="38.9338" fill="#25B366" fill-opacity="0.5"/>
<rect x="1009.56" y="310.565" width="38.9338" height="38.9338" fill="#25B366" fill-opacity="0.5"/>
<rect x="1009.56" y="621.13" width="38.9338" height="38.9338" fill="#25B366" fill-opacity="0.5"/>
<rect x="1009.56" y="852.922" width="38.9338" height="38.9338" fill="#25B366" fill-opacity="0.5"/>
<rect x="1009.56" y="1008.66" width="38.9338" height="38.9338" fill="#25B366" fill-opacity="0.5"/>
<rect x="698.998" width="38.9338" height="38.9338" fill="#25B366" fill-opacity="0.5"/>
<rect x="1009.56" width="38.9338" height="38.9338" fill="#25B366" fill-opacity="0.5"/>
<rect x="621.13" y="309.66" width="38.9338" height="38.9338" fill="#25B366" fill-opacity="0.5"/>
<rect x="621.13" y="620.225" width="38.9338" height="38.9338" fill="#25B366" fill-opacity="0.5"/>
<rect x="621.13" y="852.017" width="38.9338" height="38.9338" fill="#25B366" fill-opacity="0.5"/>
<rect x="621.13" y="1007.75" width="38.9338" height="38.9338" fill="#25B366" fill-opacity="0.5"/>
<rect x="931.695" y="309.66" width="38.9338" height="38.9338" fill="#25B366" fill-opacity="0.5"/>
<rect x="931.695" y="620.225" width="38.9338" height="38.9338" fill="#25B366" fill-opacity="0.5"/>
<rect x="931.695" y="852.017" width="38.9338" height="38.9338" fill="#25B366" fill-opacity="0.5"/>
<rect x="931.695" y="1007.75" width="38.9338" height="38.9338" fill="#25B366" fill-opacity="0.5"/>
<rect x="621.13" width="38.9338" height="38.9338" fill="#25B366" fill-opacity="0.5"/>
<rect x="931.695" width="38.9338" height="38.9338" fill="#25B366" fill-opacity="0.5"/>
<rect x="582.196" y="38.9336" width="38.9338" height="38.9338" fill="#25B366" fill-opacity="0.5"/>
<rect x="582.196" y="349.499" width="38.9338" height="38.9338" fill="#25B366" fill-opacity="0.5"/>
<rect x="892.762" y="38.9336" width="38.9338" height="38.9338" fill="#25B366" fill-opacity="0.5"/>
<rect x="892.762" y="349.499" width="38.9338" height="38.9338" fill="#25B366" fill-opacity="0.5"/>
<rect x="427.366" y="38.9336" width="38.9338" height="38.9338" fill="#25B366" fill-opacity="0.5"/>
<rect x="427.366" y="349.499" width="38.9338" height="38.9338" fill="#25B366" fill-opacity="0.5"/>
<rect x="737.932" y="38.9336" width="38.9338" height="38.9338" fill="#25B366" fill-opacity="0.5"/>
<rect x="737.932" y="349.499" width="38.9338" height="38.9338" fill="#25B366" fill-opacity="0.5"/>
<rect x="349.499" y="38.9336" width="38.9338" height="38.9338" fill="#25B366" fill-opacity="0.5"/>
<rect x="349.499" y="349.499" width="38.9338" height="38.9338" fill="#25B366" fill-opacity="0.5"/>
<rect x="427.366" y="116.801" width="38.9338" height="38.9338" fill="#25B366" fill-opacity="0.5"/>
<rect x="427.366" y="427.366" width="38.9338" height="38.9338" fill="#25B366" fill-opacity="0.5"/>
<rect x="427.366" y="659.158" width="38.9338" height="38.9338" fill="#25B366" fill-opacity="0.5"/>
<rect x="737.932" y="116.801" width="38.9338" height="38.9338" fill="#25B366" fill-opacity="0.5"/>
<rect x="737.932" y="427.366" width="38.9338" height="38.9338" fill="#25B366" fill-opacity="0.5"/>
<rect x="737.932" y="659.158" width="38.9338" height="38.9338" fill="#25B366" fill-opacity="0.5"/>
<rect x="427.366" y="270.726" width="38.9338" height="38.9338" fill="#25B366" fill-opacity="0.5"/>
<rect x="427.366" y="581.291" width="38.9338" height="38.9338" fill="#25B366" fill-opacity="0.5"/>
<rect x="427.366" y="813.083" width="38.9338" height="38.9338" fill="#25B366" fill-opacity="0.5"/>
<rect x="427.366" y="968.818" width="38.9338" height="38.9338" fill="#25B366" fill-opacity="0.5"/>
<rect x="737.932" y="270.726" width="38.9338" height="38.9338" fill="#25B366" fill-opacity="0.5"/>
<rect x="737.932" y="581.291" width="38.9338" height="38.9338" fill="#25B366" fill-opacity="0.5"/>
<rect x="737.932" y="813.083" width="38.9338" height="38.9338" fill="#25B366" fill-opacity="0.5"/>
<rect x="737.932" y="968.818" width="38.9338" height="38.9338" fill="#25B366" fill-opacity="0.5"/>
<rect x="505.234" y="193.764" width="38.9338" height="38.9338" fill="#25B366" fill-opacity="0.5"/>
<rect x="505.234" y="504.329" width="38.9338" height="38.9338" fill="#25B366" fill-opacity="0.5"/>
<rect x="505.234" y="736.121" width="38.9338" height="38.9338" fill="#25B366" fill-opacity="0.5"/>
<rect x="505.234" y="891.856" width="38.9338" height="38.9338" fill="#25B366" fill-opacity="0.5"/>
<rect x="815.799" y="193.764" width="38.9338" height="38.9338" fill="#25B366" fill-opacity="0.5"/>
<rect x="815.799" y="504.329" width="38.9338" height="38.9338" fill="#25B366" fill-opacity="0.5"/>
<rect x="815.799" y="736.121" width="38.9338" height="38.9338" fill="#25B366" fill-opacity="0.5"/>
<rect x="815.799" y="891.856" width="38.9338" height="38.9338" fill="#25B366" fill-opacity="0.5"/>
<rect x="544.168" y="77.8677" width="38.0284" height="38.9338" fill="#25B366" fill-opacity="0.5"/>
<rect x="544.168" y="388.433" width="38.0284" height="38.9338" fill="#25B366" fill-opacity="0.5"/>
<rect x="854.732" y="77.8677" width="38.0284" height="38.9338" fill="#25B366" fill-opacity="0.5"/>
<rect x="854.732" y="388.433" width="38.0284" height="38.9338" fill="#25B366" fill-opacity="0.5"/>
<rect x="621.13" y="154.83" width="38.9338" height="38.9338" fill="#25B366" fill-opacity="0.5"/>
<rect x="621.13" y="465.395" width="38.9338" height="38.9338" fill="#25B366" fill-opacity="0.5"/>
<rect x="621.13" y="697.187" width="38.9338" height="38.9338" fill="#25B366" fill-opacity="0.5"/>
<rect x="931.695" y="154.83" width="38.9338" height="38.9338" fill="#25B366" fill-opacity="0.5"/>
<rect x="931.695" y="465.395" width="38.9338" height="38.9338" fill="#25B366" fill-opacity="0.5"/>
<rect x="931.695" y="697.187" width="38.9338" height="38.9338" fill="#25B366" fill-opacity="0.5"/>
<rect x="582.196" y="270.726" width="38.9338" height="38.9338" fill="#25B366" fill-opacity="0.5"/>
<rect x="582.196" y="581.291" width="38.9338" height="38.9338" fill="#25B366" fill-opacity="0.5"/>
<rect x="582.196" y="813.083" width="38.9338" height="38.9338" fill="#25B366" fill-opacity="0.5"/>
<rect x="582.196" y="968.818" width="38.9338" height="38.9338" fill="#25B366" fill-opacity="0.5"/>
<rect x="892.762" y="270.726" width="38.9338" height="38.9338" fill="#25B366" fill-opacity="0.5"/>
<rect x="892.762" y="581.291" width="38.9338" height="38.9338" fill="#25B366" fill-opacity="0.5"/>
<rect x="892.762" y="813.083" width="38.9338" height="38.9338" fill="#25B366" fill-opacity="0.5"/>
<rect x="892.762" y="968.818" width="38.9338" height="38.9338" fill="#25B366" fill-opacity="0.5"/>
<rect x="698.998" y="232.697" width="38.9338" height="38.9338" fill="#25B366" fill-opacity="0.5"/>
<rect x="698.998" y="543.262" width="38.9338" height="38.9338" fill="#25B366" fill-opacity="0.5"/>
<rect x="698.998" y="775.054" width="38.9338" height="38.9338" fill="#25B366" fill-opacity="0.5"/>
<rect x="698.998" y="930.79" width="38.9338" height="38.9338" fill="#25B366" fill-opacity="0.5"/>
<rect x="1009.56" y="232.697" width="38.9338" height="38.9338" fill="#25B366" fill-opacity="0.5"/>
<rect x="1009.56" y="543.262" width="38.9338" height="38.9338" fill="#25B366" fill-opacity="0.5"/>
<rect x="1009.56" y="775.054" width="38.9338" height="38.9338" fill="#25B366" fill-opacity="0.5"/>
<rect x="1009.56" y="930.79" width="38.9338" height="38.9338" fill="#25B366" fill-opacity="0.5"/>
<rect x="698.998" y="77.8677" width="38.9338" height="38.9338" fill="#25B366" fill-opacity="0.5"/>
<rect x="698.998" y="388.433" width="38.9338" height="38.9338" fill="#25B366" fill-opacity="0.5"/>
<rect x="1009.56" y="77.8677" width="38.9338" height="38.9338" fill="#25B366" fill-opacity="0.5"/>
<rect x="1009.56" y="388.433" width="38.9338" height="38.9338" fill="#25B366" fill-opacity="0.5"/>
<rect x="388.433" y="77.8677" width="38.9338" height="38.9338" fill="#25B366" fill-opacity="0.5"/>
<rect x="388.433" y="388.433" width="38.9338" height="38.9338" fill="#25B366" fill-opacity="0.5"/>
<rect x="388.433" y="231.792" width="38.9338" height="38.9338" fill="#25B366" fill-opacity="0.5"/>
<rect x="388.433" y="542.357" width="38.9338" height="38.9338" fill="#25B366" fill-opacity="0.5"/>
<rect x="388.433" y="774.149" width="38.9338" height="38.9338" fill="#25B366" fill-opacity="0.5"/>
<rect x="388.433" y="929.884" width="38.9338" height="38.9338" fill="#25B366" fill-opacity="0.5"/>
<rect x="466.3" y="154.83" width="38.9338" height="38.9338" fill="#25B366" fill-opacity="0.5"/>
<rect x="466.3" y="465.395" width="38.9338" height="38.9338" fill="#25B366" fill-opacity="0.5"/>
<rect x="466.3" y="697.187" width="38.9338" height="38.9338" fill="#25B366" fill-opacity="0.5"/>
<rect x="776.865" y="154.83" width="38.9338" height="38.9338" fill="#25B366" fill-opacity="0.5"/>
<rect x="776.865" y="465.395" width="38.9338" height="38.9338" fill="#25B366" fill-opacity="0.5"/>
<rect x="776.865" y="697.187" width="38.9338" height="38.9338" fill="#25B366" fill-opacity="0.5"/>
<rect x="505.234" y="38.9336" width="38.9338" height="38.9338" fill="#25B366" fill-opacity="0.5"/>
<rect x="505.234" y="349.499" width="38.9338" height="38.9338" fill="#25B366" fill-opacity="0.5"/>
<rect x="815.799" y="38.9336" width="38.9338" height="38.9338" fill="#25B366" fill-opacity="0.5"/>
<rect x="815.799" y="349.499" width="38.9338" height="38.9338" fill="#25B366" fill-opacity="0.5"/>
<rect x="582.196" y="116.801" width="38.9338" height="38.9338" fill="#25B366" fill-opacity="0.5"/>
<rect x="582.196" y="427.366" width="38.9338" height="38.9338" fill="#25B366" fill-opacity="0.5"/>
<rect x="582.196" y="659.158" width="38.9338" height="38.9338" fill="#25B366" fill-opacity="0.5"/>
<rect x="892.762" y="116.801" width="38.9338" height="38.9338" fill="#25B366" fill-opacity="0.5"/>
<rect x="892.762" y="427.366" width="38.9338" height="38.9338" fill="#25B366" fill-opacity="0.5"/>
<rect x="892.762" y="659.158" width="38.9338" height="38.9338" fill="#25B366" fill-opacity="0.5"/>
<rect x="544.168" y="231.792" width="38.0284" height="38.9338" fill="#25B366" fill-opacity="0.5"/>
<rect x="544.168" y="542.357" width="38.0284" height="38.9338" fill="#25B366" fill-opacity="0.5"/>
<rect x="544.168" y="774.149" width="38.0284" height="38.9338" fill="#25B366" fill-opacity="0.5"/>
<rect x="544.168" y="929.884" width="38.0284" height="38.9338" fill="#25B366" fill-opacity="0.5"/>
<rect x="854.732" y="231.792" width="38.0284" height="38.9338" fill="#25B366" fill-opacity="0.5"/>
<rect x="854.732" y="542.357" width="38.0284" height="38.9338" fill="#25B366" fill-opacity="0.5"/>
<rect x="854.732" y="774.149" width="38.0284" height="38.9338" fill="#25B366" fill-opacity="0.5"/>
<rect x="854.732" y="929.884" width="38.0284" height="38.9338" fill="#25B366" fill-opacity="0.5"/>
<rect x="660.063" y="193.764" width="38.9338" height="38.9338" fill="#25B366" fill-opacity="0.5"/>
<rect x="660.063" y="504.329" width="38.9338" height="38.9338" fill="#25B366" fill-opacity="0.5"/>
<rect x="660.063" y="736.121" width="38.9338" height="38.9338" fill="#25B366" fill-opacity="0.5"/>
<rect x="660.063" y="891.856" width="38.9338" height="38.9338" fill="#25B366" fill-opacity="0.5"/>
<rect x="970.629" y="193.764" width="38.9338" height="38.9338" fill="#25B366" fill-opacity="0.5"/>
<rect x="970.629" y="504.329" width="38.9338" height="38.9338" fill="#25B366" fill-opacity="0.5"/>
<rect x="970.629" y="736.121" width="38.9338" height="38.9338" fill="#25B366" fill-opacity="0.5"/>
<rect x="970.629" y="891.856" width="38.9338" height="38.9338" fill="#25B366" fill-opacity="0.5"/>
<rect x="660.063" y="38.9336" width="38.9338" height="38.9338" fill="#25B366" fill-opacity="0.5"/>
<rect x="660.063" y="349.499" width="38.9338" height="38.9338" fill="#25B366" fill-opacity="0.5"/>
<rect x="970.629" y="38.9336" width="38.9338" height="38.9338" fill="#25B366" fill-opacity="0.5"/>
<rect x="970.629" y="349.499" width="38.9338" height="38.9338" fill="#25B366" fill-opacity="0.5"/>
<rect x="38.9336" y="193.764" width="38.9338" height="38.9338" fill="#25B366" fill-opacity="0.5"/>
<rect x="38.9336" y="504.329" width="38.9338" height="38.9338" fill="#25B366" fill-opacity="0.5"/>
<rect x="38.9336" y="736.121" width="38.9338" height="38.9338" fill="#25B366" fill-opacity="0.5"/>
<rect x="38.9336" y="891.856" width="38.9338" height="38.9338" fill="#25B366" fill-opacity="0.5"/>
<rect x="77.8677" y="77.8677" width="38.9338" height="38.9338" fill="#25B366" fill-opacity="0.5"/>
<rect x="77.8677" y="388.433" width="38.9338" height="38.9338" fill="#25B366" fill-opacity="0.5"/>
<rect x="155.735" y="154.83" width="38.0284" height="38.9338" fill="#25B366" fill-opacity="0.5"/>
<rect x="155.735" y="465.395" width="38.0284" height="38.9338" fill="#25B366" fill-opacity="0.5"/>
<rect x="155.735" y="697.187" width="38.0284" height="38.9338" fill="#25B366" fill-opacity="0.5"/>
<rect x="116.801" y="270.726" width="38.9338" height="38.9338" fill="#25B366" fill-opacity="0.5"/>
<rect x="116.801" y="581.291" width="38.9338" height="38.9338" fill="#25B366" fill-opacity="0.5"/>
<rect x="116.801" y="813.083" width="38.9338" height="38.9338" fill="#25B366" fill-opacity="0.5"/>
<rect x="116.801" y="968.818" width="38.9338" height="38.9338" fill="#25B366" fill-opacity="0.5"/>
<rect x="232.697" y="232.697" width="38.9338" height="38.9338" fill="#25B366" fill-opacity="0.5"/>
<rect x="232.697" y="543.262" width="38.9338" height="38.9338" fill="#25B366" fill-opacity="0.5"/>
<rect x="232.697" y="775.054" width="38.9338" height="38.9338" fill="#25B366" fill-opacity="0.5"/>
<rect x="232.697" y="930.79" width="38.9338" height="38.9338" fill="#25B366" fill-opacity="0.5"/>
<rect x="232.697" y="77.8677" width="38.9338" height="38.9338" fill="#25B366" fill-opacity="0.5"/>
<rect x="232.697" y="388.433" width="38.9338" height="38.9338" fill="#25B366" fill-opacity="0.5"/>
<rect y="154.83" width="38.9338" height="38.9338" fill="#25B366" fill-opacity="0.5"/>
<rect y="465.395" width="38.9338" height="38.9338" fill="#25B366" fill-opacity="0.5"/>
<rect y="697.187" width="38.9338" height="38.9338" fill="#25B366" fill-opacity="0.5"/>
<rect x="77.8677" y="309.66" width="38.9338" height="38.9338" fill="#25B366" fill-opacity="0.5"/>
<rect x="77.8677" y="620.225" width="38.9338" height="38.9338" fill="#25B366" fill-opacity="0.5"/>
<rect x="77.8677" y="852.017" width="38.9338" height="38.9338" fill="#25B366" fill-opacity="0.5"/>
<rect x="77.8677" y="1007.75" width="38.9338" height="38.9338" fill="#25B366" fill-opacity="0.5"/>
<rect x="77.8677" width="38.9338" height="38.9338" fill="#25B366" fill-opacity="0.5"/>
<rect y="309.66" width="38.9338" height="38.9338" fill="#25B366" fill-opacity="0.5"/>
<rect y="620.225" width="38.9338" height="38.9338" fill="#25B366" fill-opacity="0.5"/>
<rect y="852.017" width="38.9338" height="38.9338" fill="#25B366" fill-opacity="0.5"/>
<rect y="1007.75" width="38.9338" height="38.9338" fill="#25B366" fill-opacity="0.5"/>
<rect width="38.9338" height="38.9338" fill="#25B366" fill-opacity="0.5"/>
<rect x="77.8677" y="232.697" width="38.9338" height="38.9338" fill="#25B366" fill-opacity="0.5"/>
<rect x="77.8677" y="543.262" width="38.9338" height="38.9338" fill="#25B366" fill-opacity="0.5"/>
<rect x="77.8677" y="775.054" width="38.9338" height="38.9338" fill="#25B366" fill-opacity="0.5"/>
<rect x="77.8677" y="930.79" width="38.9338" height="38.9338" fill="#25B366" fill-opacity="0.5"/>
<rect x="116.801" y="116.801" width="38.9338" height="38.9338" fill="#25B366" fill-opacity="0.5"/>
<rect x="116.801" y="427.366" width="38.9338" height="38.9338" fill="#25B366" fill-opacity="0.5"/>
<rect x="116.801" y="659.158" width="38.9338" height="38.9338" fill="#25B366" fill-opacity="0.5"/>
<rect x="193.764" y="193.764" width="38.9338" height="38.9338" fill="#25B366" fill-opacity="0.5"/>
<rect x="193.764" y="504.329" width="38.9338" height="38.9338" fill="#25B366" fill-opacity="0.5"/>
<rect x="193.764" y="736.121" width="38.9338" height="38.9338" fill="#25B366" fill-opacity="0.5"/>
<rect x="193.764" y="891.856" width="38.9338" height="38.9338" fill="#25B366" fill-opacity="0.5"/>
<rect x="155.735" y="309.66" width="38.0284" height="38.9338" fill="#25B366" fill-opacity="0.5"/>
<rect x="155.735" y="620.225" width="38.0284" height="38.9338" fill="#25B366" fill-opacity="0.5"/>
<rect x="155.735" y="852.017" width="38.0284" height="38.9338" fill="#25B366" fill-opacity="0.5"/>
<rect x="155.735" y="1007.75" width="38.0284" height="38.9338" fill="#25B366" fill-opacity="0.5"/>
<rect x="155.735" width="38.0284" height="38.9338" fill="#25B366" fill-opacity="0.5"/>
<rect x="271.631" y="271.631" width="38.9338" height="38.9338" fill="#25B366" fill-opacity="0.5"/>
<rect x="271.631" y="582.196" width="38.9338" height="38.9338" fill="#25B366" fill-opacity="0.5"/>
<rect x="271.631" y="813.988" width="38.9338" height="38.9338" fill="#25B366" fill-opacity="0.5"/>
<rect x="271.631" y="969.724" width="38.9338" height="38.9338" fill="#25B366" fill-opacity="0.5"/>
<rect x="271.631" y="116.801" width="38.9338" height="38.9338" fill="#25B366" fill-opacity="0.5"/>
<rect x="271.631" y="427.366" width="38.9338" height="38.9338" fill="#25B366" fill-opacity="0.5"/>
<rect x="271.631" y="659.158" width="38.9338" height="38.9338" fill="#25B366" fill-opacity="0.5"/>
<rect x="310.565" y="154.83" width="38.9338" height="38.9338" fill="#25B366" fill-opacity="0.5"/>
<rect x="310.565" y="465.395" width="38.9338" height="38.9338" fill="#25B366" fill-opacity="0.5"/>
<rect x="310.565" y="697.187" width="38.9338" height="38.9338" fill="#25B366" fill-opacity="0.5"/>
<rect x="310.565" y="310.565" width="38.9338" height="38.9338" fill="#25B366" fill-opacity="0.5"/>
<rect x="310.565" y="621.13" width="38.9338" height="38.9338" fill="#25B366" fill-opacity="0.5"/>
<rect x="310.565" y="852.922" width="38.9338" height="38.9338" fill="#25B366" fill-opacity="0.5"/>
<rect x="310.565" y="1008.66" width="38.9338" height="38.9338" fill="#25B366" fill-opacity="0.5"/>
<rect x="310.565" width="38.9338" height="38.9338" fill="#25B366" fill-opacity="0.5"/>
<rect x="232.697" y="309.66" width="38.9338" height="38.9338" fill="#25B366" fill-opacity="0.5"/>
<rect x="232.697" y="620.225" width="38.9338" height="38.9338" fill="#25B366" fill-opacity="0.5"/>
<rect x="232.697" y="852.017" width="38.9338" height="38.9338" fill="#25B366" fill-opacity="0.5"/>
<rect x="232.697" y="1007.75" width="38.9338" height="38.9338" fill="#25B366" fill-opacity="0.5"/>
<rect x="232.697" width="38.9338" height="38.9338" fill="#25B366" fill-opacity="0.5"/>
<rect x="193.764" y="38.9336" width="38.9338" height="38.9338" fill="#25B366" fill-opacity="0.5"/>
<rect x="193.764" y="349.499" width="38.9338" height="38.9338" fill="#25B366" fill-opacity="0.5"/>
<rect x="38.9336" y="38.9336" width="38.9338" height="38.9338" fill="#25B366" fill-opacity="0.5"/>
<rect x="38.9336" y="349.499" width="38.9338" height="38.9338" fill="#25B366" fill-opacity="0.5"/>
<rect x="38.9336" y="116.801" width="38.9338" height="38.9338" fill="#25B366" fill-opacity="0.5"/>
<rect x="38.9336" y="427.366" width="38.9338" height="38.9338" fill="#25B366" fill-opacity="0.5"/>
<rect x="38.9336" y="659.158" width="38.9338" height="38.9338" fill="#25B366" fill-opacity="0.5"/>
<rect x="38.9336" y="270.726" width="38.9338" height="38.9338" fill="#25B366" fill-opacity="0.5"/>
<rect x="38.9336" y="581.291" width="38.9338" height="38.9338" fill="#25B366" fill-opacity="0.5"/>
<rect x="38.9336" y="813.083" width="38.9338" height="38.9338" fill="#25B366" fill-opacity="0.5"/>
<rect x="38.9336" y="968.818" width="38.9338" height="38.9338" fill="#25B366" fill-opacity="0.5"/>
<rect x="116.801" y="193.764" width="38.9338" height="38.9338" fill="#25B366" fill-opacity="0.5"/>
<rect x="116.801" y="504.329" width="38.9338" height="38.9338" fill="#25B366" fill-opacity="0.5"/>
<rect x="116.801" y="736.121" width="38.9338" height="38.9338" fill="#25B366" fill-opacity="0.5"/>
<rect x="116.801" y="891.856" width="38.9338" height="38.9338" fill="#25B366" fill-opacity="0.5"/>
<rect x="155.735" y="77.8677" width="38.0284" height="38.9338" fill="#25B366" fill-opacity="0.5"/>
<rect x="155.735" y="388.433" width="38.0284" height="38.9338" fill="#25B366" fill-opacity="0.5"/>
<rect x="232.697" y="154.83" width="38.9338" height="38.9338" fill="#25B366" fill-opacity="0.5"/>
<rect x="232.697" y="465.395" width="38.9338" height="38.9338" fill="#25B366" fill-opacity="0.5"/>
<rect x="232.697" y="697.187" width="38.9338" height="38.9338" fill="#25B366" fill-opacity="0.5"/>
<rect x="193.764" y="270.726" width="38.9338" height="38.9338" fill="#25B366" fill-opacity="0.5"/>
<rect x="193.764" y="581.291" width="38.9338" height="38.9338" fill="#25B366" fill-opacity="0.5"/>
<rect x="193.764" y="813.083" width="38.9338" height="38.9338" fill="#25B366" fill-opacity="0.5"/>
<rect x="193.764" y="968.818" width="38.9338" height="38.9338" fill="#25B366" fill-opacity="0.5"/>
<rect x="310.565" y="232.697" width="38.9338" height="38.9338" fill="#25B366" fill-opacity="0.5"/>
<rect x="310.565" y="543.262" width="38.9338" height="38.9338" fill="#25B366" fill-opacity="0.5"/>
<rect x="310.565" y="775.054" width="38.9338" height="38.9338" fill="#25B366" fill-opacity="0.5"/>
<rect x="310.565" y="930.79" width="38.9338" height="38.9338" fill="#25B366" fill-opacity="0.5"/>
<rect x="310.565" y="77.8677" width="38.9338" height="38.9338" fill="#25B366" fill-opacity="0.5"/>
<rect x="310.565" y="388.433" width="38.9338" height="38.9338" fill="#25B366" fill-opacity="0.5"/>
<rect y="77.8677" width="38.9338" height="38.9338" fill="#25B366" fill-opacity="0.5"/>
<rect y="388.433" width="38.9338" height="38.9338" fill="#25B366" fill-opacity="0.5"/>
<rect y="231.792" width="38.9338" height="38.9338" fill="#25B366" fill-opacity="0.5"/>
<rect y="542.357" width="38.9338" height="38.9338" fill="#25B366" fill-opacity="0.5"/>
<rect y="774.149" width="38.9338" height="38.9338" fill="#25B366" fill-opacity="0.5"/>
<rect y="929.884" width="38.9338" height="38.9338" fill="#25B366" fill-opacity="0.5"/>
<rect x="77.8677" y="154.83" width="38.9338" height="38.9338" fill="#25B366" fill-opacity="0.5"/>
<rect x="77.8677" y="465.395" width="38.9338" height="38.9338" fill="#25B366" fill-opacity="0.5"/>
<rect x="77.8677" y="697.187" width="38.9338" height="38.9338" fill="#25B366" fill-opacity="0.5"/>
<rect x="116.801" y="38.9336" width="38.9338" height="38.9338" fill="#25B366" fill-opacity="0.5"/>
<rect x="116.801" y="349.499" width="38.9338" height="38.9338" fill="#25B366" fill-opacity="0.5"/>
<rect x="193.764" y="116.801" width="38.9338" height="38.9338" fill="#25B366" fill-opacity="0.5"/>
<rect x="193.764" y="427.366" width="38.9338" height="38.9338" fill="#25B366" fill-opacity="0.5"/>
<rect x="193.764" y="659.158" width="38.9338" height="38.9338" fill="#25B366" fill-opacity="0.5"/>
<rect x="155.735" y="231.792" width="38.0284" height="38.9338" fill="#25B366" fill-opacity="0.5"/>
<rect x="155.735" y="542.357" width="38.0284" height="38.9338" fill="#25B366" fill-opacity="0.5"/>
<rect x="155.735" y="774.149" width="38.0284" height="38.9338" fill="#25B366" fill-opacity="0.5"/>
<rect x="155.735" y="929.884" width="38.0284" height="38.9338" fill="#25B366" fill-opacity="0.5"/>
<rect x="271.631" y="193.764" width="38.9338" height="38.9338" fill="#25B366" fill-opacity="0.5"/>
<rect x="271.631" y="504.329" width="38.9338" height="38.9338" fill="#25B366" fill-opacity="0.5"/>
<rect x="271.631" y="736.121" width="38.9338" height="38.9338" fill="#25B366" fill-opacity="0.5"/>
<rect x="271.631" y="891.856" width="38.9338" height="38.9338" fill="#25B366" fill-opacity="0.5"/>
<rect x="271.631" y="38.9336" width="38.9338" height="38.9338" fill="#25B366" fill-opacity="0.5"/>
<rect x="271.631" y="349.499" width="38.9338" height="38.9338" fill="#25B366" fill-opacity="0.5"/>
</svg>
