<svg width="72" height="73" viewBox="0 0 72 73" fill="none" xmlns="http://www.w3.org/2000/svg">
<g clip-path="url(#clip0_110_213)">
<path d="M36 6.98281C45.6188 6.98281 46.7578 7.025 50.5406 7.19375C54.0563 7.34844 55.9547 7.93906 57.2203 8.43125C58.8938 9.07812 60.1031 9.86562 61.3547 11.1172C62.6203 12.3828 63.3938 13.5781 64.0406 15.2516C64.5328 16.5172 65.1234 18.4297 65.2781 21.9312C65.4469 25.7281 65.4891 26.8672 65.4891 36.4719C65.4891 46.0906 65.4469 47.2297 65.2781 51.0125C65.1234 54.5281 64.5328 56.4266 64.0406 57.6922C63.3938 59.3656 62.6063 60.575 61.3547 61.8266C60.0891 63.0922 58.8938 63.8656 57.2203 64.5125C55.9547 65.0047 54.0422 65.5953 50.5406 65.75C46.7438 65.9187 45.6047 65.9609 36 65.9609C26.3813 65.9609 25.2422 65.9187 21.4594 65.75C17.9438 65.5953 16.0453 65.0047 14.7797 64.5125C13.1063 63.8656 11.8969 63.0781 10.6453 61.8266C9.37969 60.5609 8.60625 59.3656 7.95938 57.6922C7.46719 56.4266 6.87656 54.5141 6.72188 51.0125C6.55313 47.2156 6.51094 46.0766 6.51094 36.4719C6.51094 26.8531 6.55313 25.7141 6.72188 21.9312C6.87656 18.4156 7.46719 16.5172 7.95938 15.2516C8.60625 13.5781 9.39375 12.3687 10.6453 11.1172C11.9109 9.85156 13.1063 9.07812 14.7797 8.43125C16.0453 7.93906 17.9578 7.34844 21.4594 7.19375C25.2422 7.025 26.3813 6.98281 36 6.98281ZM36 0.5C26.2266 0.5 25.0031 0.542187 21.1641 0.710937C17.3391 0.879687 14.7094 1.49844 12.4313 2.38437C10.0547 3.3125 8.04375 4.53594 6.04688 6.54687C4.03594 8.54375 2.8125 10.5547 1.88438 12.9172C0.998437 15.2094 0.379688 17.825 0.210938 21.65C0.0421875 25.5031 0 26.7266 0 36.5C0 46.2734 0.0421875 47.4969 0.210938 51.3359C0.379688 55.1609 0.998437 57.7906 1.88438 60.0687C2.8125 62.4453 4.03594 64.4562 6.04688 66.4531C8.04375 68.45 10.0547 69.6875 12.4172 70.6016C14.7094 71.4875 17.325 72.1062 21.15 72.275C24.9891 72.4437 26.2125 72.4859 35.9859 72.4859C45.7594 72.4859 46.9828 72.4437 50.8219 72.275C54.6469 72.1062 57.2766 71.4875 59.5547 70.6016C61.9172 69.6875 63.9281 68.45 65.925 66.4531C67.9219 64.4562 69.1594 62.4453 70.0734 60.0828C70.9594 57.7906 71.5781 55.175 71.7469 51.35C71.9156 47.5109 71.9578 46.2875 71.9578 36.5141C71.9578 26.7406 71.9156 25.5172 71.7469 21.6781C71.5781 17.8531 70.9594 15.2234 70.0734 12.9453C69.1875 10.5547 67.9641 8.54375 65.9531 6.54687C63.9563 4.55 61.9453 3.3125 59.5828 2.39844C57.2906 1.5125 54.675 0.89375 50.85 0.725C46.9969 0.542188 45.7734 0.5 36 0.5Z" fill="#25B366"/>
<path d="M36 18.0078C25.7906 18.0078 17.5078 26.2906 17.5078 36.5C17.5078 46.7094 25.7906 54.9922 36 54.9922C46.2094 54.9922 54.4922 46.7094 54.4922 36.5C54.4922 26.2906 46.2094 18.0078 36 18.0078ZM36 48.4953C29.3766 48.4953 24.0047 43.1234 24.0047 36.5C24.0047 29.8766 29.3766 24.5047 36 24.5047C42.6234 24.5047 47.9953 29.8766 47.9953 36.5C47.9953 43.1234 42.6234 48.4953 36 48.4953Z" fill="#25B366"/>
<path d="M59.5406 17.2764C59.5406 19.667 57.6 21.5936 55.2234 21.5936C52.8328 21.5936 50.9062 19.653 50.9062 17.2764C50.9062 14.8858 52.8469 12.9592 55.2234 12.9592C57.6 12.9592 59.5406 14.8999 59.5406 17.2764Z" fill="#25B366"/>
</g>
<defs>
<clipPath id="clip0_110_213">
<rect width="72" height="72" fill="white" transform="translate(0 0.5)"/>
</clipPath>
</defs>
</svg>
