<svg width="72" height="73" viewBox="0 0 72 73" fill="none" xmlns="http://www.w3.org/2000/svg">
<g clip-path="url(#clip0_110_217)">
<path d="M66.6703 0.5H5.31562C2.37656 0.5 0 2.82031 0 5.68906V67.2969C0 70.1656 2.37656 72.5 5.31562 72.5H66.6703C69.6094 72.5 72 70.1656 72 67.3109V5.68906C72 2.82031 69.6094 0.5 66.6703 0.5ZM21.3609 61.8547H10.6734V27.4859H21.3609V61.8547ZM16.0172 22.8031C12.5859 22.8031 9.81563 20.0328 9.81563 16.6156C9.81563 13.1984 12.5859 10.4281 16.0172 10.4281C19.4344 10.4281 22.2047 13.1984 22.2047 16.6156C22.2047 20.0187 19.4344 22.8031 16.0172 22.8031ZM61.3547 61.8547H50.6812V45.1484C50.6812 41.1688 50.6109 36.0359 45.1266 36.0359C39.5719 36.0359 38.7281 40.3812 38.7281 44.8672V61.8547H28.0688V27.4859H38.3062V32.1828H38.4469C39.8672 29.4828 43.3547 26.6281 48.5438 26.6281C59.3578 26.6281 61.3547 33.7438 61.3547 42.9969V61.8547Z" fill="#25B366"/>
</g>
<defs>
<clipPath id="clip0_110_217">
<rect width="72" height="72" fill="white" transform="translate(0 0.5)"/>
</clipPath>
</defs>
</svg>
