<svg width="206" height="117" viewBox="0 0 206 117" fill="none" xmlns="http://www.w3.org/2000/svg">
    <path
        d="M37.655 81.005C37.655 84.1783 37.0317 87.0683 35.785 89.675C34.595 92.225 32.9517 94.435 30.855 96.305C28.815 98.175 26.3783 99.62 23.545 100.64C20.7683 101.66 17.765 102.17 14.535 102.17C12.2683 102.17 10.0017 101.575 7.735 100.385C5.46833 99.1383 3.28667 97.1833 1.19 94.52L7.48 82.195C7.87667 82.9317 8.47167 83.6967 9.265 84.49C10.0583 85.2267 10.9367 85.8783 11.9 86.445C12.92 87.0117 13.9117 87.4933 14.875 87.89C15.895 88.23 16.8017 88.4 17.595 88.4C18.275 88.4 18.9833 88.2867 19.72 88.06C20.4567 87.8333 21.1367 87.4933 21.76 87.04C22.3833 86.5867 22.865 86.0767 23.205 85.51C23.6017 84.8867 23.8 84.1783 23.8 83.385C23.8 82.025 23.3467 80.7783 22.44 79.645C21.59 78.455 20.5133 77.35 19.21 76.33C17.9067 75.2533 16.49 74.1767 14.96 73.1C13.43 72.0233 12.0133 70.89 10.71 69.7C9.46333 68.51 8.38667 67.1783 7.48 65.705C6.57333 64.2317 6.12 62.5883 6.12 60.775C6.12 57.8283 6.99833 55.08 8.755 52.53C10.5117 49.98 12.6933 47.7983 15.3 45.985C17.9633 44.115 20.8533 42.6417 23.97 41.565C27.0867 40.4883 30.0333 39.95 32.81 39.95C34.34 39.95 35.785 40.1483 37.145 40.545C38.505 40.885 39.6667 41.48 40.63 42.33C41.65 43.1233 42.4433 44.1433 43.01 45.39C43.6333 46.6367 43.945 48.195 43.945 50.065C43.945 50.8583 43.86 51.6517 43.69 52.445C43.5767 53.2383 43.4633 54.0883 43.35 54.995L31.025 58.565C31.1383 58.1117 31.2233 57.6583 31.28 57.205C31.3933 56.7517 31.45 56.2983 31.45 55.845C31.45 54.145 31.1383 52.9267 30.515 52.19C29.9483 51.3967 29.1833 51 28.22 51C27.7667 51 27.2 51.17 26.52 51.51C25.8967 51.85 25.245 52.3033 24.565 52.87C23.9417 53.38 23.4033 54.0033 22.95 54.74C22.4967 55.4767 22.27 56.27 22.27 57.12C22.27 58.48 22.6383 59.6133 23.375 60.52C24.1683 61.4267 25.1317 62.2767 26.265 63.07C27.3983 63.8633 28.6167 64.685 29.92 65.535C31.28 66.3283 32.5267 67.3767 33.66 68.68C34.7933 69.9833 35.7283 71.6267 36.465 73.61C37.2583 75.5367 37.655 78.0017 37.655 81.005ZM42.3884 102.17C43.8618 94.35 45.3068 86.6717 46.7234 79.135C47.2334 75.9617 47.8001 72.675 48.4234 69.275C49.0468 65.8183 49.6418 62.4183 50.2084 59.075C50.7751 55.7317 51.3134 52.5017 51.8234 49.385C52.3334 46.2117 52.7868 43.3217 53.1834 40.715L66.9534 39.78C65.9901 43.7467 65.0268 47.8833 64.0634 52.19C63.1568 56.4967 62.3068 60.69 61.5134 64.77L69.9284 63.835C70.7218 59.8117 71.4301 55.93 72.0534 52.19C72.6768 48.3933 73.4984 44.4833 74.5184 40.46C75.8218 40.2333 77.2668 40.0633 78.8534 39.95C80.4401 39.78 81.9134 39.6383 83.2734 39.525C84.6334 39.4117 85.7668 39.3267 86.6734 39.27C87.6368 39.1567 88.1184 39.1 88.1184 39.1C87.3251 41.65 86.5601 44.455 85.8234 47.515C85.1434 50.5183 84.4634 53.6633 83.7834 56.95C83.1034 60.18 82.4518 63.4667 81.8284 66.81C81.2051 70.1533 80.6384 73.3267 80.1284 76.33C78.8818 83.5267 77.7201 90.8933 76.6434 98.43L63.3834 99.96C64.1201 96.56 64.7718 93.245 65.3384 90.015C65.9051 87.295 66.4718 84.4617 67.0384 81.515C67.6618 78.5683 68.1434 76.0467 68.4834 73.95L60.2384 74.715C59.8418 76.8683 59.3601 79.3617 58.7934 82.195C58.2834 85.0283 57.8018 87.72 57.3484 90.27C56.7251 93.33 56.1018 96.39 55.4784 99.45L42.3884 102.17ZM90.3729 100.725L94.2829 83.64C94.2829 81.2033 94.2263 78.5683 94.1129 75.735C94.0563 72.845 93.9429 69.955 93.7729 67.065C93.6029 64.175 93.4329 61.3983 93.2629 58.735C93.0929 56.015 92.9513 53.635 92.8379 51.595C92.7246 49.4983 92.6113 47.8267 92.4979 46.58C92.3846 45.3333 92.3279 44.71 92.3279 44.71L106.183 39.44V49.81C106.183 51.2267 106.183 52.6717 106.183 54.145C106.183 55.6183 106.155 57.0633 106.098 58.48C106.098 59.8967 106.098 61.2283 106.098 62.475C106.098 63.7217 106.098 64.77 106.098 65.62C106.835 63.6933 107.713 61.3133 108.733 58.48C109.81 55.6467 110.801 52.8983 111.708 50.235C112.785 47.1183 113.89 43.8317 115.023 40.375L128.198 43.35C125.761 48.2233 123.381 53.0683 121.058 57.885C120.095 59.9817 119.075 62.1633 117.998 64.43C116.921 66.64 115.845 68.8783 114.768 71.145C113.691 73.355 112.643 75.5083 111.623 77.605C110.603 79.7017 109.668 81.6567 108.818 83.47C108.535 84.9433 108.166 86.5583 107.713 88.315C107.316 90.0717 106.92 91.7433 106.523 93.33C106.013 95.2 105.475 97.07 104.908 98.94L90.3729 100.725ZM151.17 100.3C149.753 100.527 148.195 100.782 146.495 101.065C144.795 101.348 143.265 101.603 141.905 101.83C142.132 99.96 142.358 98.1183 142.585 96.305C142.755 94.7183 142.897 93.1317 143.01 91.545C143.18 89.9583 143.322 88.5983 143.435 87.465H136.04L132.64 99.705C131.393 99.875 129.92 100.073 128.22 100.3C126.52 100.47 124.933 100.64 123.46 100.81C121.647 101.037 119.862 101.263 118.105 101.49C120.372 93.9533 122.61 86.53 124.82 79.22C125.727 76.16 126.662 72.9583 127.625 69.615C128.645 66.2717 129.637 62.9567 130.6 59.67C131.62 56.3267 132.583 53.125 133.49 50.065C134.397 47.005 135.19 44.2 135.87 41.65C139.723 41.3667 143.633 41.0267 147.6 40.63C151.623 40.2333 155.533 39.695 159.33 39.015C159.16 40.8283 158.962 43.095 158.735 45.815C158.565 48.4783 158.395 51.3967 158.225 54.57C158.055 57.7433 157.885 61.0583 157.715 64.515C157.545 67.9717 157.375 71.3717 157.205 74.715C156.922 82.535 156.61 90.8367 156.27 99.62C154.57 99.9033 152.87 100.13 151.17 100.3ZM138.08 78.965C138.307 78.965 138.703 78.965 139.27 78.965C139.893 78.9083 140.517 78.88 141.14 78.88C141.82 78.8233 142.443 78.795 143.01 78.795C143.577 78.7383 143.973 78.6817 144.2 78.625C144.2 78.285 144.228 77.7183 144.285 76.925C144.398 76.075 144.483 75.14 144.54 74.12C144.653 73.0433 144.767 71.8817 144.88 70.635C144.993 69.3883 145.107 68.17 145.22 66.98C145.447 64.09 145.73 60.9733 146.07 57.63L146.58 50.235L145.305 50.32L143.35 57.63L138.08 78.965ZM162.102 102.085C163.632 94.5483 165.106 87.1817 166.522 79.985C167.032 76.925 167.599 73.7517 168.222 70.465C168.846 67.1217 169.412 63.835 169.922 60.605C170.489 57.3183 170.999 54.1733 171.452 51.17C171.962 48.11 172.359 45.3333 172.642 42.84C175.872 41.82 179.357 41.0833 183.097 40.63C186.837 40.12 190.549 39.865 194.232 39.865C196.442 39.865 198.256 40.12 199.672 40.63C201.146 41.14 202.279 41.8767 203.072 42.84C203.922 43.7467 204.517 44.8233 204.857 46.07C205.197 47.3167 205.367 48.705 205.367 50.235C205.367 52.5017 204.971 54.74 204.177 56.95C203.384 59.1033 202.307 61.1717 200.947 63.155C199.644 65.0817 198.114 66.8667 196.357 68.51C194.657 70.0967 192.816 71.4 190.832 72.42C191.852 74.6867 192.929 77.18 194.062 79.9C195.252 82.5633 196.357 85.1133 197.377 87.55C198.511 90.3833 199.672 93.2167 200.862 96.05L187.687 100.64C186.554 96.73 185.534 93.0467 184.627 89.59C184.231 88.1733 183.834 86.7283 183.437 85.255C183.041 83.725 182.672 82.3083 182.332 81.005C181.992 79.645 181.709 78.455 181.482 77.435C181.256 76.415 181.114 75.6217 181.057 75.055L179.952 75.395C179.612 77.2083 179.187 79.4183 178.677 82.025C178.224 84.6317 177.799 87.1533 177.402 89.59C176.892 92.48 176.382 95.455 175.872 98.515L162.102 102.085ZM182.077 65.195C183.154 65.0817 184.457 64.6283 185.987 63.835C187.574 63.0417 189.076 62.1067 190.492 61.03C191.909 59.8967 193.127 58.735 194.147 57.545C195.167 56.355 195.677 55.3067 195.677 54.4C195.677 53.7767 195.479 53.295 195.082 52.955C194.686 52.5583 194.119 52.275 193.382 52.105C192.702 51.8783 191.937 51.7367 191.087 51.68C190.237 51.6233 189.359 51.595 188.452 51.595C187.829 51.595 187.177 51.6233 186.497 51.68C185.874 51.68 185.307 51.68 184.797 51.68L182.077 65.195Z"
        fill="#25B366" />
    <path fill-rule="evenodd" clip-rule="evenodd"
        d="M116.567 0.00024185C116.44 0.00393096 116.316 0.0470931 116.214 0.122134L102.946 9.95148C102.862 10.0134 102.795 10.0967 102.751 10.1911C102.708 10.2855 102.689 10.3908 102.697 10.4942C102.705 10.5977 102.739 10.699 102.796 10.7859C102.853 10.8728 102.933 10.945 103.025 10.9938L108.728 14.0177L100.128 26.3056C99.7086 27.0325 100.4 27.5038 101.027 27.1417L117.768 13.7695C117.847 13.7057 117.911 13.6221 117.951 13.5283C117.991 13.4345 118.007 13.3308 117.997 13.2295C117.988 13.1281 117.953 13.0292 117.896 12.9444C117.839 12.8596 117.761 12.7891 117.671 12.7412L112.223 9.85031L117.13 0.915171C117.182 0.82015 117.209 0.711333 117.206 0.603099C117.203 0.494869 117.172 0.387499 117.115 0.295209C117.058 0.202916 116.976 0.125929 116.88 0.074433C116.785 0.0229404 116.675 -0.00292955 116.567 0.00024185ZM110.782 10.2792L110.832 9.80537C110.792 9.8769 110.815 9.96122 110.807 10.0423C110.798 10.1234 110.758 10.2011 110.782 10.2792C110.768 10.35 110.77 10.3417 110.753 10.432C110.741 10.495 110.722 10.5951 110.695 10.7388L110.58 11.3525L110.465 11.9661L110.242 13.6544L110.148 14.153C110.166 14.0572 110.179 13.9893 110.195 13.9037C110.211 13.8181 110.225 13.7457 110.242 13.6544C110.254 13.5658 110.264 13.488 110.276 13.3979C110.289 13.2957 110.308 13.1549 110.316 13.0911L110.458 12.0053L110.782 10.2792Z"
        fill="#25B366" />
</svg>