<svg width="42" height="40" viewBox="0 0 42 40" fill="none" xmlns="http://www.w3.org/2000/svg">
<path d="M14.7315 4.43112H10.3199C7.57462 4.43112 6.20097 4.43112 5.15243 4.94074C4.2301 5.38902 3.48077 6.10379 3.01082 6.98358C2.47656 7.98377 2.47656 9.29407 2.47656 11.9127V29.6804C2.47656 32.2991 2.47656 33.6077 3.01082 34.6079C3.48077 35.4877 4.2301 36.2037 5.15243 36.652C6.19995 37.1611 7.57193 37.1611 10.3118 37.1611H28.9537C31.6935 37.1611 33.0635 37.1611 34.1111 36.652C35.0334 36.2037 35.7852 35.487 36.2552 34.6072C36.7889 33.608 36.7889 32.3007 36.7889 29.6872V25.4718M39.2398 13.7825V2.09326M39.2398 2.09326H26.9854M39.2398 2.09326L22.0836 18.4583" stroke="#001301" stroke-width="4" stroke-linecap="round" stroke-linejoin="round"/>
</svg>
