<svg width="72" height="73" viewBox="0 0 72 73" fill="none" xmlns="http://www.w3.org/2000/svg">
<path d="M0 72.4998L5.06099 54.0109C1.938 48.5989 0.296999 42.4639 0.299999 36.1729C0.308999 16.505 16.314 0.5 35.9789 0.5C45.5219 0.503 54.4799 4.21999 61.2179 10.964C67.9528 17.708 71.6608 26.6719 71.6578 36.2059C71.6488 55.8769 55.6439 71.8818 35.9789 71.8818C30.0089 71.8788 24.1259 70.3818 18.915 67.5379L0 72.4998ZM19.791 61.0789C24.8189 64.0639 29.6189 65.8519 35.9669 65.8549C52.3109 65.8549 65.6249 52.5529 65.6339 36.1999C65.6399 19.814 52.3889 6.52999 35.9909 6.52399C19.635 6.52399 6.32999 19.826 6.32399 36.1759C6.32099 42.8509 8.27698 47.8489 11.562 53.0779L8.56498 64.0219L19.791 61.0789ZM53.9519 44.6869C53.7299 44.3149 53.1359 44.0929 52.2419 43.6459C51.3509 43.1989 46.9679 41.0419 46.1489 40.7449C45.3329 40.4479 44.7389 40.2979 44.1419 41.1919C43.5479 42.0829 41.8379 44.0929 41.3189 44.6869C40.7999 45.2809 40.2779 45.3559 39.3869 44.9089C38.4959 44.4619 35.6219 43.5229 32.2169 40.4839C29.5679 38.1199 27.7769 35.2009 27.2579 34.3069C26.7389 33.4159 27.2039 32.9329 27.6479 32.4889C28.0499 32.0899 28.5389 31.4479 28.9859 30.9259C29.4389 30.4099 29.5859 30.0379 29.8859 29.4409C30.1829 28.8469 30.0359 28.3249 29.8109 27.8779C29.5859 27.4339 27.8039 23.045 27.0629 21.26C26.3369 19.523 25.6019 19.757 25.0559 19.73L23.3459 19.7C22.7519 19.7 21.786 19.922 20.97 20.816C20.154 21.71 17.85 23.8639 17.85 28.2529C17.85 32.6419 21.045 36.8809 21.489 37.4749C21.936 38.0689 27.7739 47.0749 36.7169 50.9359C38.8439 51.8539 40.5059 52.4029 41.7989 52.8139C43.9349 53.4919 45.8789 53.3959 47.4149 53.1679C49.1279 52.9129 52.6889 51.0109 53.4329 48.9289C54.1769 46.8439 54.1769 45.0589 53.9519 44.6869Z" fill="#25B366"/>
</svg>
