<svg width="73" height="72" viewBox="0 0 73 72" fill="none" xmlns="http://www.w3.org/2000/svg">
<g clip-path="url(#clip0_128_329)">
<path d="M71.483 21.6001C71.483 21.6001 70.7799 16.6361 68.6143 14.4564C65.8721 11.5876 62.8064 11.5736 61.4002 11.4048C51.3315 10.6736 36.2143 10.6736 36.2143 10.6736H36.1861C36.1861 10.6736 21.0689 10.6736 11.0002 11.4048C9.59395 11.5736 6.52832 11.5876 3.78613 14.4564C1.62051 16.6361 0.931445 21.6001 0.931445 21.6001C0.931445 21.6001 0.200195 27.4361 0.200195 33.258V38.7142C0.200195 44.5361 0.917383 50.372 0.917383 50.372C0.917383 50.372 1.62051 55.3361 3.77207 57.5158C6.51426 60.3845 10.1143 60.2861 11.7174 60.5955C17.483 61.1439 36.2002 61.3126 36.2002 61.3126C36.2002 61.3126 51.3315 61.2845 61.4002 60.5673C62.8064 60.3986 65.8721 60.3845 68.6143 57.5158C70.7799 55.3361 71.483 50.372 71.483 50.372C71.483 50.372 72.2002 44.5501 72.2002 38.7142V33.258C72.2002 27.4361 71.483 21.6001 71.483 21.6001ZM28.7611 45.3376V25.1017L48.2096 35.2548L28.7611 45.3376Z" fill="#25B366"/>
</g>
<defs>
<clipPath id="clip0_128_329">
<rect width="72" height="72" fill="white" transform="translate(0.200195)"/>
</clipPath>
</defs>
</svg>
